**ABCDEFGHIJKLMNOPQRSTUVWXYZabcdefghijklmnopqrstuvwxyz**************************
**PARASOLID !"#$%&'()*+,-./:;<=>?@[\]^_`{|}~0123456789**************************
**PART1;
MC=AMD64;
MC_MODEL=Intel64 Family 6 Model 140 Stepping 1, GenuineIntel;
MC_ID=unknown;
OS=Windows_NT;
OS_RELEASE=unknown;
FRU=Parasolid Version 35.1, build 251, 11- 4-2023;
APPL=SOLIDWORKS 2024-2024157;
SITE=;
USER=unknown;
FORMAT=text;
GUISE=transmit;
KEY=makeProjectedPlanarWire;
FILE=makeProjectedPlanarWire.x_t;
DATE=Fri Oct 24 22:18:33 2025;
**PART2;
SCH=SCH_3501251_35102;
USFLD_SIZE=0;
**PART3;
**END_OF_HEADER*****************************************************************
T51 : TRANSMIT FILE created by modeller version 350125123 SCH_3501251_35102_1300
6231 0 12 36 CCCI7 lattice222 0 CCCI4 mesh1006 0 I8 polyline1008 0 CCCCCCCDI5 ow
ner1040 0 CCCI16 boundary_lattice222 0 CCCI13 boundary_mesh1006 0 I17 boundary_p
olyline1008 0 CCCA16 index_map_offset0 0 1 dA9 index_map82 0 A17 node_id_index_m
ap82 0 A20 schema_embedding_map82 0 A5 child12 0 A14 lowest_node_id0 0 1 dA16 me
sh_offset_data206 0 Z1 47 2 3 0 0 0 0 0 0 0 1e3 1e-8 0 4 0 1 0 3 1 5 0 6 7 8 0 0
 9 10 11 0 0 0 0 0 0 0 81 255 2 2 38 12 1 0 0 0 0 13 0 70 11 CI9 list_type0 0 1
 uI10 notransmit0 0 1 lCCCDCCDI12 finger_index0 0 1 dI12 finger_block1012 0 CZ3
 0 4 T1 0 0 2 20 1 14 14 13 255 5 43 0 1 0 15 0 0 9 15 50 255 6 3 0 15 0 0 0 +0
 0 .0045 0 0 1 1 0 0 31 255 7 23 0 10 16 0 0 +-867361737988404e-33 8673617379884
04e-33 .0045 0 0 1 1 0 0 .004 29 255 8 35 0 11 17 0 .006 .006 .0045 19 9 CCCCCCI
5 frame230 0 CA5 owner12 0 Z9 42 0 1 0 0 5 0 V0 16 255 10 21 0 ?18 0 19 7 0 0 1
 18 255 11 33 0 20 0 21 8 ?1 17 255 20 0 0 0 0 11 22 23 0 24 +18 21 30 0 25 11 2
6 17 ?1 17 25 0 27 24 28 21 29 30 0 31 -18 26 27 0 28 21 32 33 ?1 29 17 32 0 21
 33 8 -.006 .006 .0045 29 33 29 0 26 34 17 -.006 -.006 .0045 29 34 26 0 32 0 33
 .006 -.006 .0045 18 32 24 0 22 26 0 34 ?1 17 22 0 27 28 24 32 20 23 0 35 -15 25
5 27 7 0 22 15 36 17 28 0 27 25 22 26 35 37 0 29 -17 24 0 27 22 25 11 31 19 0 0
 -16 23 9 0 ?20 37 0 38 0 0 1 17 35 0 0 0 0 32 28 37 0 0 +16 37 12 0 ?35 30 23 3
9 0 0 1 16 30 15 0 ?29 19 37 40 0 0 1 30 255 39 14 0 37 38 40 0 +-.006 -.006 .00
45 1 0 0 30 38 11 0 23 0 39 0 +.006 .006 .0045 -144560289664734e-30 1 0 30 40 17
 0 30 39 16 0 +-.006 .006 .0045 144560289664734e-30 -1 0 30 16 20 0 19 40 7 0 +-
.006 .006 .0045 -1 0 0 16 19 18 0 ?31 10 30 16 0 0 1 17 31 0 0 0 0 21 24 19 0 0
 +17 29 0 0 0 0 26 25 30 0 0 +14 255 15 1 41 ?0 0 27 5 6 -0 0 0 0 5 15 36 8 0 18
 15 0 17 18 0 36 18 18 0 42 10 0 0 +17 42 0 0 0 0 0 18 10 0 0 -81 1 41 47 43 15
 0 0 0 0 44 80 7 CCCCCDI12 legal_owners0 16 1 lCZ1 43 45 46 9000 1 1 1 1 1 1 1 1
 0 FFFFTFTFFFFFFFFF1 82 255 1 44 -1842544503 79 255 14 46 SWEntUnchanged74 4 CI1
6 index_map_offset0 0 1 dCCZ20 14 2 0 0 2 41 0 0 0 0 0 0 0 0 0 0 0 0 0 0 0 0 0 0
 80 2 12 47 48 9000 0 0 0 0 3 5 0 0 0 FFTFTTTFFTFFFFFF10 10 98 255 13 13 66 111
 115 115 45 69 120 116 114 117 100 101 50 79 23 48 SWIMPLICITBODYNAME_ID_U1 0 
